<mxfile host="65bd71144e">
    <diagram id="C5RBs43oDa-KdzZeNtuy" name="Page-1">
        <mxGraphModel dx="946" dy="649" grid="1" gridSize="10" guides="1" tooltips="1" connect="1" arrows="1" fold="1" page="1" pageScale="1" pageWidth="827" pageHeight="1169" math="0" shadow="0">
            <root>
                <mxCell id="WIyWlLk6GJQsqaUBKTNV-0"/>
                <mxCell id="WIyWlLk6GJQsqaUBKTNV-1" parent="WIyWlLk6GJQsqaUBKTNV-0"/>
                <mxCell id="ZRpAcRi9Kn3N0MtbUfiD-23" style="edgeStyle=orthogonalEdgeStyle;rounded=0;orthogonalLoop=1;jettySize=auto;html=1;exitX=0.5;exitY=1;exitDx=0;exitDy=0;entryX=0.5;entryY=0;entryDx=0;entryDy=0;startArrow=block;startFill=1;" parent="WIyWlLk6GJQsqaUBKTNV-1" source="ZRpAcRi9Kn3N0MtbUfiD-0" target="ZRpAcRi9Kn3N0MtbUfiD-18" edge="1">
                    <mxGeometry relative="1" as="geometry"/>
                </mxCell>
                <mxCell id="ZRpAcRi9Kn3N0MtbUfiD-0" value="Input" style="rounded=1;whiteSpace=wrap;html=1;" parent="WIyWlLk6GJQsqaUBKTNV-1" vertex="1">
                    <mxGeometry x="435" y="20" width="90" height="30" as="geometry"/>
                </mxCell>
                <mxCell id="ZRpAcRi9Kn3N0MtbUfiD-4" value="&lt;font style=&quot;font-size: 7px;&quot;&gt;preguntas&amp;nbsp;&lt;/font&gt;" style="ellipse;whiteSpace=wrap;html=1;" parent="WIyWlLk6GJQsqaUBKTNV-1" vertex="1">
                    <mxGeometry x="340" y="200" width="50" height="50" as="geometry"/>
                </mxCell>
                <mxCell id="M-8su_GckMI3d904jpOa-2" style="edgeStyle=orthogonalEdgeStyle;rounded=0;orthogonalLoop=1;jettySize=auto;html=1;exitX=0.5;exitY=0;exitDx=0;exitDy=0;entryX=0;entryY=1;entryDx=0;entryDy=0;" parent="WIyWlLk6GJQsqaUBKTNV-1" source="ZRpAcRi9Kn3N0MtbUfiD-5" edge="1">
                    <mxGeometry relative="1" as="geometry">
                        <mxPoint x="440" y="160" as="targetPoint"/>
                    </mxGeometry>
                </mxCell>
                <mxCell id="ZRpAcRi9Kn3N0MtbUfiD-5" value="&lt;font style=&quot;font-size: 7px;&quot;&gt;examinador&lt;/font&gt;" style="ellipse;whiteSpace=wrap;html=1;" parent="WIyWlLk6GJQsqaUBKTNV-1" vertex="1">
                    <mxGeometry x="415" y="200" width="50" height="50" as="geometry"/>
                </mxCell>
                <mxCell id="ZRpAcRi9Kn3N0MtbUfiD-8" value="&lt;font style=&quot;font-size: 7px;&quot;&gt;tools&lt;/font&gt;" style="ellipse;whiteSpace=wrap;html=1;" parent="WIyWlLk6GJQsqaUBKTNV-1" vertex="1">
                    <mxGeometry x="350" y="280" width="30" height="30" as="geometry"/>
                </mxCell>
                <mxCell id="ZRpAcRi9Kn3N0MtbUfiD-16" value="" style="endArrow=classic;html=1;rounded=0;exitX=0.393;exitY=0.993;exitDx=0;exitDy=0;exitPerimeter=0;dashed=1;entryX=0.337;entryY=0.052;entryDx=0;entryDy=0;entryPerimeter=0;" parent="WIyWlLk6GJQsqaUBKTNV-1" source="ZRpAcRi9Kn3N0MtbUfiD-4" target="ZRpAcRi9Kn3N0MtbUfiD-8" edge="1">
                    <mxGeometry width="50" height="50" relative="1" as="geometry">
                        <mxPoint x="330" y="250" as="sourcePoint"/>
                        <mxPoint x="360" y="280" as="targetPoint"/>
                    </mxGeometry>
                </mxCell>
                <mxCell id="ZRpAcRi9Kn3N0MtbUfiD-17" value="" style="endArrow=classic;html=1;rounded=0;exitX=0.704;exitY=0.041;exitDx=0;exitDy=0;exitPerimeter=0;entryX=0.624;entryY=0.982;entryDx=0;entryDy=0;entryPerimeter=0;dashed=1;" parent="WIyWlLk6GJQsqaUBKTNV-1" source="ZRpAcRi9Kn3N0MtbUfiD-8" target="ZRpAcRi9Kn3N0MtbUfiD-4" edge="1">
                    <mxGeometry width="50" height="50" relative="1" as="geometry">
                        <mxPoint x="310" y="280" as="sourcePoint"/>
                        <mxPoint x="360" y="230" as="targetPoint"/>
                    </mxGeometry>
                </mxCell>
                <mxCell id="ZRpAcRi9Kn3N0MtbUfiD-20" style="edgeStyle=orthogonalEdgeStyle;rounded=0;orthogonalLoop=1;jettySize=auto;html=1;exitX=0;exitY=0.5;exitDx=0;exitDy=0;startArrow=block;startFill=1;" parent="WIyWlLk6GJQsqaUBKTNV-1" source="ZRpAcRi9Kn3N0MtbUfiD-18" target="ZRpAcRi9Kn3N0MtbUfiD-4" edge="1">
                    <mxGeometry relative="1" as="geometry"/>
                </mxCell>
                <mxCell id="ZRpAcRi9Kn3N0MtbUfiD-18" value="orquestador" style="rounded=0;whiteSpace=wrap;html=1;" parent="WIyWlLk6GJQsqaUBKTNV-1" vertex="1">
                    <mxGeometry x="440" y="120" width="80" height="40" as="geometry"/>
                </mxCell>
                <mxCell id="ZRpAcRi9Kn3N0MtbUfiD-24" value="&lt;font style=&quot;font-size: 7px;&quot;&gt;elaborar plan de estudio&lt;/font&gt;" style="ellipse;whiteSpace=wrap;html=1;" parent="WIyWlLk6GJQsqaUBKTNV-1" vertex="1">
                    <mxGeometry x="494" y="199" width="50" height="50" as="geometry"/>
                </mxCell>
                <mxCell id="M-8su_GckMI3d904jpOa-0" style="edgeStyle=orthogonalEdgeStyle;rounded=0;orthogonalLoop=1;jettySize=auto;html=1;exitX=0.5;exitY=0;exitDx=0;exitDy=0;entryX=1;entryY=0.5;entryDx=0;entryDy=0;" parent="WIyWlLk6GJQsqaUBKTNV-1" source="ZRpAcRi9Kn3N0MtbUfiD-25" target="ZRpAcRi9Kn3N0MtbUfiD-18" edge="1">
                    <mxGeometry relative="1" as="geometry"/>
                </mxCell>
                <mxCell id="ZRpAcRi9Kn3N0MtbUfiD-25" value="&lt;font style=&quot;font-size: 7px;&quot;&gt;explicar&lt;/font&gt;" style="ellipse;whiteSpace=wrap;html=1;" parent="WIyWlLk6GJQsqaUBKTNV-1" vertex="1">
                    <mxGeometry x="570" y="200" width="50" height="50" as="geometry"/>
                </mxCell>
                <mxCell id="M-8su_GckMI3d904jpOa-4" style="edgeStyle=orthogonalEdgeStyle;rounded=0;orthogonalLoop=1;jettySize=auto;html=1;entryX=0.942;entryY=1.025;entryDx=0;entryDy=0;entryPerimeter=0;" parent="WIyWlLk6GJQsqaUBKTNV-1" source="ZRpAcRi9Kn3N0MtbUfiD-24" edge="1">
                    <mxGeometry relative="1" as="geometry">
                        <mxPoint x="519.36" y="160" as="targetPoint"/>
                    </mxGeometry>
                </mxCell>
            </root>
        </mxGraphModel>
    </diagram>
</mxfile>